<svg width="426" height="197" viewBox="0 0 426 197" fill="none" xmlns="http://www.w3.org/2000/svg">
<path d="M206.995 12.4561L249.555 51.2324L334.77 43.5303L347.071 42.418L342.383 53.8467L331.3 80.8604L374.957 75.0654L378.804 74.5547L381.443 77.3994L413.443 111.899L416.573 115.274L414.982 119.593L397.482 167.093L395.386 172.782L389.384 171.925L345.409 165.643L259.901 188.74L258.472 189.126L257.004 188.94L123.43 172.057L25.8517 183.945L12.6554 185.553L18.1036 173.427L32.3917 141.622L17.8448 98.9189L16.7423 95.6816L18.463 92.7256L19.9708 90.1221C23.6695 83.7009 28.5446 75.0035 32.6788 67.127C35.0473 62.6145 37.1229 58.4652 38.589 55.2061C39.3259 53.5679 39.8591 52.2639 40.1935 51.3105C40.3297 50.9223 40.4046 50.6667 40.4445 50.5234V43.5H106.171L199.472 10.9189L203.692 9.44531L206.995 12.4561Z" fill="white" stroke="#C9EDFF" stroke-width="15"/>
</svg>
