<svg width="130" height="42" viewBox="0 0 130 42" fill="none" xmlns="http://www.w3.org/2000/svg">
<path d="M18.7301 2.18457H37.6315C38.5761 2.18457 39.3423 2.94991 39.3424 3.89453V22.7959C39.3424 23.7406 38.5762 24.5068 37.6315 24.5068H18.7301C17.7855 24.5068 17.0201 23.7405 17.0201 22.7959V3.89453C17.0202 2.94996 17.7855 2.18465 18.7301 2.18457Z" fill="#9DFF89" stroke="white" stroke-width="3.42105"/>
<path d="M11.3749 9.88196H30.2762C31.2209 9.88196 31.9871 10.6473 31.9872 11.5919V30.4933C31.9872 31.438 31.2209 32.2042 30.2762 32.2042H11.3749C10.4303 32.2041 9.66492 31.4379 9.66492 30.4933V11.5919C9.665 10.6473 10.4303 9.88204 11.3749 9.88196Z" fill="#0073DF" stroke="white" stroke-width="3.42105"/>
<rect x="2.77958" y="33.1875" width="20.4408" height="5.47368" fill="#0073DF" stroke="white" stroke-width="0.0855263"/>
<rect x="2.77958" y="17.7928" width="20.4408" height="13.2566" fill="#0B96DB" stroke="white" stroke-width="0.0855263"/>
<path d="M24.0332 34.0426V38.1051C24.0332 39.0498 23.267 39.816 22.3223 39.816H3.4209C2.47627 39.816 1.71094 39.0497 1.71094 38.1051V34.0426H24.0332ZM3.4209 17.4938H22.3223C23.2669 17.4938 24.0331 18.2591 24.0332 19.2037V30.6217H1.71094V19.2037L1.71973 19.0289C1.80152 18.224 2.44114 17.5844 3.24609 17.5026L3.4209 17.4938Z" stroke="white" stroke-width="3.42105"/>
<path d="M51.7264 18.3215C50.9327 18.3215 50.2485 18.1938 49.6737 17.9384C49.1081 17.6738 48.5881 17.277 48.1137 16.7479L49.5095 15.3658C49.8197 15.7215 50.1618 15.9998 50.5358 16.2005C50.919 16.3921 51.3614 16.4879 51.8632 16.4879C52.3193 16.4879 52.6706 16.4058 52.9169 16.2415C53.1723 16.0773 53.3 15.8493 53.3 15.5573C53.3 15.2928 53.2179 15.0784 53.0537 14.9142C52.8895 14.75 52.6706 14.6086 52.3969 14.49C52.1323 14.3714 51.8358 14.2573 51.5074 14.1479C51.1881 14.0384 50.8688 13.9152 50.5495 13.7784C50.2302 13.6324 49.9337 13.4545 49.66 13.2447C49.3955 13.0258 49.1811 12.7566 49.0169 12.4373C48.8527 12.1089 48.7706 11.6984 48.7706 11.2058C48.7706 10.6128 48.912 10.1019 49.1948 9.67312C49.4867 9.24435 49.8881 8.92049 50.399 8.70155C50.9099 8.47348 51.4983 8.35944 52.1642 8.35944C52.8393 8.35944 53.4551 8.47804 54.0116 8.71523C54.5772 8.95242 55.0425 9.27628 55.4074 9.68681L54.0116 11.0689C53.7197 10.7679 53.4232 10.5444 53.1221 10.3984C52.8302 10.2524 52.4972 10.1794 52.1232 10.1794C51.7492 10.1794 51.4527 10.2524 51.2337 10.3984C51.0148 10.5352 50.9053 10.7359 50.9053 11.0005C50.9053 11.2468 50.9874 11.4475 51.1516 11.6026C51.3158 11.7486 51.5302 11.8763 51.7948 11.9858C52.0685 12.0952 52.365 12.2047 52.6842 12.3142C53.0127 12.4237 53.3365 12.5514 53.6558 12.6973C53.9751 12.8433 54.2671 13.0303 54.5316 13.2584C54.8053 13.4773 55.0242 13.7601 55.1885 14.1068C55.3527 14.4444 55.4348 14.864 55.4348 15.3658C55.4348 16.2872 55.1064 17.0124 54.4495 17.5415C53.7927 18.0615 52.885 18.3215 51.7264 18.3215ZM56.9401 18.171V8.50997H59.0886V18.171H56.9401ZM58.5959 18.171V16.2826H63.3717V18.171H58.5959ZM64.7476 18.171V8.50997H66.896V18.171H64.7476ZM70.344 18.171V16.2826H72.7388C73.3226 16.2826 73.8335 16.1686 74.2714 15.9405C74.7093 15.7033 75.0469 15.3612 75.284 14.9142C75.5212 14.4672 75.6398 13.938 75.6398 13.3268C75.6398 12.7156 75.5167 12.191 75.2704 11.7531C75.0332 11.3152 74.6956 10.9777 74.2577 10.7405C73.829 10.5033 73.3226 10.3847 72.7388 10.3847H70.2756V8.50997H72.7661C73.496 8.50997 74.1665 8.62856 74.7777 8.86576C75.3981 9.09383 75.9363 9.42681 76.3925 9.8647C76.8577 10.2935 77.2135 10.8044 77.4598 11.3973C77.7153 11.9812 77.843 12.6289 77.843 13.3405C77.843 14.0429 77.7153 14.6907 77.4598 15.2837C77.2135 15.8766 76.8623 16.3875 76.4062 16.8163C75.95 17.2451 75.4118 17.578 74.7914 17.8152C74.1802 18.0524 73.5142 18.171 72.7935 18.171H70.344ZM68.8935 18.171V8.50997H71.0419V18.171H68.8935ZM79.347 18.171V8.50997H81.4954V18.171H79.347ZM80.9891 18.171V16.31H86.2849V18.171H80.9891ZM80.9891 14.1342V12.3415H85.8059V14.1342H80.9891ZM80.9891 10.3573V8.50997H86.2164V10.3573H80.9891ZM90.5633 18.3215C89.7696 18.3215 89.0854 18.1938 88.5107 17.9384C87.9451 17.6738 87.4251 17.277 86.9507 16.7479L88.3465 15.3658C88.6567 15.7215 88.9988 15.9998 89.3728 16.2005C89.756 16.3921 90.1984 16.4879 90.7002 16.4879C91.1563 16.4879 91.5075 16.4058 91.7538 16.2415C92.0093 16.0773 92.137 15.8493 92.137 15.5573C92.137 15.2928 92.0549 15.0784 91.8907 14.9142C91.7265 14.75 91.5075 14.6086 91.2338 14.49C90.9693 14.3714 90.6728 14.2573 90.3444 14.1479C90.0251 14.0384 89.7058 13.9152 89.3865 13.7784C89.0672 13.6324 88.7707 13.4545 88.497 13.2447C88.2324 13.0258 88.0181 12.7566 87.8538 12.4373C87.6896 12.1089 87.6075 11.6984 87.6075 11.2058C87.6075 10.6128 87.7489 10.1019 88.0317 9.67312C88.3237 9.24435 88.7251 8.92049 89.236 8.70155C89.7468 8.47348 90.3353 8.35944 91.0012 8.35944C91.6763 8.35944 92.2921 8.47804 92.8486 8.71523C93.4142 8.95242 93.8795 9.27628 94.2444 9.68681L92.8486 11.0689C92.5567 10.7679 92.2602 10.5444 91.9591 10.3984C91.6672 10.2524 91.3342 10.1794 90.9602 10.1794C90.5861 10.1794 90.2896 10.2524 90.0707 10.3984C89.8517 10.5352 89.7423 10.7359 89.7423 11.0005C89.7423 11.2468 89.8244 11.4475 89.9886 11.6026C90.1528 11.7486 90.3672 11.8763 90.6317 11.9858C90.9054 12.0952 91.2019 12.2047 91.5212 12.3142C91.8496 12.4237 92.1735 12.5514 92.4928 12.6973C92.8121 12.8433 93.104 13.0303 93.3686 13.2584C93.6423 13.4773 93.8612 13.7601 94.0254 14.1068C94.1896 14.4444 94.2717 14.864 94.2717 15.3658C94.2717 16.2872 93.9433 17.0124 93.2865 17.5415C92.6296 18.0615 91.7219 18.3215 90.5633 18.3215ZM95.7771 18.171V8.50997H97.9255V18.171H95.7771ZM101.757 18.171V8.50997H103.919V18.171H101.757ZM97.0634 14.1342V12.2731H102.469V14.1342H97.0634ZM110.521 18.3352C109.792 18.3352 109.117 18.2075 108.496 17.9521C107.885 17.6966 107.347 17.3408 106.881 16.8847C106.416 16.4286 106.056 15.8994 105.8 15.2973C105.545 14.6861 105.417 14.0293 105.417 13.3268C105.417 12.6152 105.545 11.9584 105.8 11.3563C106.056 10.7542 106.412 10.2296 106.868 9.7826C107.324 9.32646 107.858 8.97523 108.469 8.72891C109.089 8.47348 109.764 8.34576 110.494 8.34576C111.215 8.34576 111.881 8.47348 112.492 8.72891C113.112 8.97523 113.651 9.32646 114.107 9.7826C114.572 10.2296 114.932 10.7587 115.188 11.37C115.443 11.9721 115.571 12.6289 115.571 13.3405C115.571 14.0429 115.443 14.6998 115.188 15.311C114.932 15.9131 114.577 16.4422 114.12 16.8984C113.664 17.3454 113.126 17.6966 112.506 17.9521C111.894 18.2075 111.233 18.3352 110.521 18.3352ZM110.494 16.3784C111.069 16.3784 111.571 16.2507 111.999 15.9952C112.437 15.7398 112.775 15.384 113.012 14.9279C113.249 14.4626 113.368 13.9289 113.368 13.3268C113.368 12.8707 113.299 12.4601 113.162 12.0952C113.026 11.7212 112.829 11.4019 112.574 11.1373C112.319 10.8637 112.013 10.6584 111.657 10.5215C111.311 10.3756 110.923 10.3026 110.494 10.3026C109.919 10.3026 109.413 10.4303 108.975 10.6858C108.546 10.9321 108.213 11.2833 107.976 11.7394C107.739 12.1865 107.62 12.7156 107.62 13.3268C107.62 13.783 107.689 14.198 107.826 14.5721C107.962 14.9461 108.154 15.27 108.4 15.5437C108.656 15.8082 108.961 16.0135 109.317 16.1594C109.673 16.3054 110.065 16.3784 110.494 16.3784ZM119.119 18.171L116.013 8.50997H118.148L120.419 15.9405H119.584L121.801 8.50997H123.484L125.701 15.9405H124.88L127.138 8.50997H129.259L126.153 18.171H124.47L122.239 10.7405H123.033L120.802 18.171H119.119Z" fill="white"/>
<path d="M50.8711 34.6299C50.5546 34.6299 50.328 34.5615 50.1912 34.4247C50.0543 34.2793 49.9859 34.0099 49.9859 33.6165C49.9859 33.3513 50.0116 33.0135 50.0629 32.603C50.1227 32.1839 50.2168 31.6109 50.3451 30.8839C50.5675 29.5411 50.7428 28.378 50.8711 27.3944C50.9481 26.7786 50.9866 26.2655 50.9866 25.8549C50.9866 25.4701 50.8454 25.2776 50.5632 25.2776C50.3408 25.2776 50.0714 25.3931 49.755 25.624C49.4471 25.8464 49.105 26.2056 48.7287 26.7017C48.6089 26.8642 48.4764 26.9454 48.331 26.9454C48.2112 26.9454 48.1043 26.8898 48.0102 26.7786C47.9247 26.6589 47.8819 26.5263 47.8819 26.3809C47.8819 26.2441 47.9076 26.1072 47.9589 25.9704C48.0188 25.825 48.1129 25.6625 48.2412 25.4829C48.6517 24.9099 49.1092 24.4694 49.6139 24.1615C50.1185 23.8451 50.6231 23.6868 51.1277 23.6868C51.5981 23.6868 51.9573 23.8365 52.2053 24.1359C52.4619 24.4352 52.5902 24.8714 52.5902 25.4444C52.5902 25.6753 52.5688 25.949 52.526 26.2655C52.4833 26.5734 52.4448 26.8257 52.4106 27.0224C52.3764 27.2191 52.3507 27.3559 52.3336 27.4329C52.8211 26.0388 53.3685 25.0681 53.9757 24.5207C54.5829 23.9648 55.25 23.6868 55.977 23.6868C56.5329 23.6868 56.9691 23.8836 57.2856 24.277C57.6106 24.6704 57.7731 25.2263 57.7731 25.9447C57.7731 26.227 57.7346 26.5776 57.6576 26.9967C58.0852 25.8165 58.5856 24.9697 59.1586 24.4566C59.7316 23.9434 60.3902 23.6868 61.1343 23.6868C61.7329 23.6868 62.1905 23.8793 62.5069 24.2642C62.8319 24.649 62.9944 25.1878 62.9944 25.8806C62.9944 26.2569 62.9389 26.7145 62.8277 27.2533L62.0451 30.9224C61.9596 31.35 61.9168 31.7178 61.9168 32.0257C61.9168 32.3849 61.9981 32.6543 62.1606 32.8339C62.3316 33.0135 62.5668 33.1033 62.8662 33.1033C63.1484 33.1033 63.4221 33.0092 63.6872 32.8211C63.9609 32.6329 64.2816 32.3207 64.6494 31.8845C64.752 31.7648 64.8675 31.7049 64.9958 31.7049C65.1069 31.7049 65.1925 31.7563 65.2523 31.8589C65.3208 31.9615 65.355 32.1026 65.355 32.2822C65.355 32.6158 65.2737 32.8809 65.1112 33.0776C64.6665 33.6165 64.226 34.0099 63.7898 34.2579C63.3537 34.5059 62.8961 34.6299 62.4171 34.6299C61.6902 34.6299 61.1214 34.4161 60.7109 33.9885C60.3004 33.5523 60.0951 32.9707 60.0951 32.2438C60.0951 31.7392 60.1977 31.0079 60.403 30.05L60.9162 27.7023C60.9333 27.6253 60.9632 27.4885 61.006 27.2918C61.0487 27.0951 61.0829 26.9112 61.1086 26.7401C61.1343 26.5605 61.1471 26.3852 61.1471 26.2142C61.1471 25.9148 61.0872 25.6924 60.9675 25.547C60.8563 25.3931 60.6938 25.3161 60.48 25.3161C60.078 25.3161 59.6546 25.577 59.2099 26.0987C58.7737 26.6118 58.3546 27.4671 57.9527 28.6645C57.5593 29.8618 57.2385 31.4184 56.9905 33.3342C56.9306 33.8474 56.8237 34.1938 56.6698 34.3734C56.5244 34.5444 56.2849 34.6299 55.9514 34.6299C55.6606 34.6299 55.4467 34.5615 55.3099 34.4247C55.1816 34.2878 55.1175 34.0313 55.1175 33.6549C55.1175 33.3043 55.1645 32.8467 55.2586 32.2822C55.3527 31.7092 55.4724 31.0378 55.6178 30.2681C56.0112 28.1984 56.2079 26.8642 56.2079 26.2655C56.2079 25.9405 56.1438 25.701 56.0155 25.547C55.8958 25.3931 55.7119 25.3161 55.4639 25.3161C55.0448 25.3161 54.6129 25.5556 54.1681 26.0345C53.7234 26.5049 53.2872 27.3474 52.8596 28.5618C52.4405 29.7678 52.0898 31.4013 51.8076 33.4625C51.7477 33.8987 51.6579 34.2023 51.5382 34.3734C51.427 34.5444 51.2046 34.6299 50.8711 34.6299ZM67.6824 34.6299C67.0923 34.6299 66.5578 34.4845 66.0788 34.1938C65.6084 33.903 65.2364 33.4839 64.9627 32.9365C64.689 32.3806 64.5522 31.7263 64.5522 30.9737C64.5522 29.6737 64.8301 28.472 65.386 27.3688C65.942 26.2569 66.763 25.3674 67.8492 24.7003C68.9354 24.0247 70.2397 23.6868 71.762 23.6868C72.1555 23.6868 72.5745 23.7168 73.0193 23.7767C73.4726 23.8365 73.8831 23.9263 74.2508 24.0461C74.4903 24.1145 74.6101 24.2855 74.6101 24.5592C74.6101 24.7816 74.5245 24.9911 74.3535 25.1878C74.191 25.3845 73.9985 25.4829 73.7762 25.4829C73.7078 25.4829 73.6564 25.4786 73.6222 25.4701C73.1775 25.3674 72.7969 25.2947 72.4805 25.252C72.164 25.2007 71.8305 25.175 71.4798 25.175C70.3936 25.175 69.4699 25.4401 68.7087 25.9704C67.9476 26.4921 67.3788 27.1849 67.0025 28.0487C66.6262 28.9125 66.438 29.8447 66.438 30.8454C66.438 31.5724 66.5791 32.1368 66.8614 32.5388C67.1522 32.9322 67.5285 33.129 67.9903 33.129C68.512 33.129 68.9696 32.9151 69.363 32.4875C69.7564 32.0599 70.1156 31.3671 70.4406 30.4092C70.7656 29.4513 71.0864 28.1513 71.4028 26.5092C71.4541 26.2697 71.5568 26.1072 71.7107 26.0217C71.8647 25.9362 72.0699 25.8934 72.3265 25.8934C72.9337 25.8934 73.2374 26.0901 73.2374 26.4836C73.2374 26.552 73.2245 26.6375 73.1989 26.7401C72.9765 27.5697 72.7712 28.4892 72.5831 29.4984C72.4035 30.499 72.3137 31.2602 72.3137 31.7819C72.3137 32.2438 72.3821 32.5816 72.5189 32.7954C72.6558 33.0007 72.8653 33.1033 73.1476 33.1033C73.4212 33.1033 73.6821 33.0135 73.9301 32.8339C74.1782 32.6457 74.4903 32.3293 74.8666 31.8845C74.9693 31.7648 75.0847 31.7049 75.213 31.7049C75.3242 31.7049 75.4097 31.7563 75.4696 31.8589C75.538 31.9615 75.5722 32.1026 75.5722 32.2822C75.5722 32.6158 75.491 32.8809 75.3285 33.0776C74.9094 33.5822 74.4989 33.9671 74.0969 34.2322C73.6949 34.4974 73.2032 34.6299 72.6216 34.6299C72.0229 34.6299 71.5397 34.4589 71.1719 34.1168C70.8041 33.7661 70.5732 33.2743 70.4791 32.6415C69.8462 33.9671 68.914 34.6299 67.6824 34.6299ZM87.3637 31.7049C87.4749 31.7049 87.5604 31.7563 87.6203 31.8589C87.6887 31.9615 87.7229 32.1026 87.7229 32.2822C87.7229 32.6158 87.6417 32.8809 87.4792 33.0776C87.0687 33.5737 86.6539 33.9586 86.2348 34.2322C85.8157 34.4974 85.3197 34.6299 84.7466 34.6299C84.1137 34.6299 83.5963 34.4461 83.1943 34.0783C82.7924 33.702 82.416 33.1204 82.0654 32.3336C81.8088 31.7691 81.595 31.35 81.4239 31.0763C81.2614 30.7941 81.0989 30.5974 80.9364 30.4862C80.7739 30.3665 80.5687 30.2938 80.3206 30.2681L80.1795 31.2174C79.9999 32.4405 79.6493 33.3214 79.1276 33.8602C78.6144 34.399 77.9045 34.6684 76.9979 34.6684C76.4078 34.6684 75.8818 34.5273 75.42 34.2451C74.9667 33.9543 74.6502 33.5865 74.4706 33.1418C74.4108 32.9878 74.3808 32.8211 74.3808 32.6415C74.3808 32.3849 74.4407 32.1625 74.5604 31.9743C74.6802 31.7862 74.8341 31.6921 75.0223 31.6921C75.1335 31.6921 75.2276 31.722 75.3045 31.7819C75.3815 31.8332 75.4542 31.9273 75.5226 32.0642C75.7877 32.5602 76.0187 32.9066 76.2154 33.1033C76.4206 33.3 76.6729 33.3984 76.9723 33.3984C77.3144 33.3984 77.6052 33.2444 77.8447 32.9365C78.0927 32.6201 78.268 32.1368 78.3706 31.4868L78.5502 30.2681H78.345C78.1483 30.2681 77.9943 30.2125 77.8831 30.1013C77.772 29.9901 77.7164 29.8362 77.7164 29.6395C77.7164 29.4171 77.772 29.2418 77.8831 29.1135C78.0029 28.9767 78.1483 28.9082 78.3193 28.9082H78.7427C78.8026 28.4892 78.8453 28.1984 78.871 28.0359L79.2687 25.1493C79.0463 25.1237 78.8368 25.1109 78.6401 25.1109C77.9131 25.1109 77.3614 25.2392 76.9851 25.4957C76.6088 25.7438 76.4206 26.103 76.4206 26.5734C76.4206 26.7872 76.442 26.9625 76.4848 27.0993C76.5361 27.2276 76.6002 27.373 76.6772 27.5355C76.7114 27.604 76.7285 27.6809 76.7285 27.7665C76.7285 27.9546 76.6387 28.1214 76.4591 28.2668C76.2881 28.4036 76.0956 28.472 75.8818 28.472C75.6081 28.472 75.4072 28.3523 75.2789 28.1128C75.0223 27.6595 74.894 27.172 74.894 26.6503C74.894 26.1115 75.0394 25.6197 75.3302 25.175C75.6295 24.7303 76.0785 24.3753 76.6772 24.1102C77.2759 23.8365 78.0157 23.6997 78.8966 23.6997C79.2815 23.6997 79.6322 23.7211 79.9486 23.7638C80.2736 23.8066 80.6285 23.8878 81.0134 24.0076C81.4325 24.1359 81.642 24.3753 81.642 24.726C81.642 25.1964 81.441 25.4316 81.0391 25.4316L80.5387 28.8826C81.5394 28.7799 82.3519 28.3523 82.9762 27.5997C83.6091 26.8385 84.1351 25.8079 84.5542 24.5079C84.6312 24.2684 84.7595 24.0845 84.9391 23.9563C85.1272 23.828 85.3624 23.7638 85.6447 23.7638C85.8841 23.7638 86.068 23.8194 86.1963 23.9306C86.3331 24.0332 86.4016 24.1829 86.4016 24.3796C86.4016 24.4395 86.3845 24.5378 86.3502 24.6747C85.9226 26.0859 85.3111 27.2063 84.5157 28.0359C83.7203 28.8655 82.8522 29.4171 81.9114 29.6908C82.2364 29.7678 82.5016 29.8832 82.7068 30.0372C82.9206 30.1911 83.1002 30.3836 83.2456 30.6145C83.391 30.8368 83.5578 31.149 83.746 31.551C84.0111 32.1155 84.2591 32.5174 84.4901 32.7569C84.721 32.9878 84.9904 33.1033 85.2983 33.1033C85.572 33.1033 85.8328 33.0135 86.0808 32.8339C86.3289 32.6457 86.641 32.3293 87.0174 31.8845C87.12 31.7648 87.2354 31.7049 87.3637 31.7049ZM95.876 32.2309C96.0043 32.1796 96.1112 32.154 96.1968 32.154C96.3336 32.154 96.4362 32.2053 96.5047 32.3079C96.5731 32.4105 96.6073 32.5431 96.6073 32.7056C96.6073 32.9622 96.5431 33.1803 96.4149 33.3599C96.2951 33.5395 96.0856 33.702 95.7862 33.8474C95.2816 34.0868 94.6274 34.2793 93.8234 34.4247C93.0195 34.5615 92.2283 34.6299 91.4501 34.6299C90.3724 34.6299 89.4701 34.5102 88.7431 34.2707C88.0162 34.0227 87.4731 33.6849 87.1139 33.2572C86.7632 32.8296 86.5879 32.3464 86.5879 31.8076C86.5879 31.072 86.8231 30.4477 87.2935 29.9345C87.7724 29.4128 88.4737 29.0365 89.3974 28.8056C88.8928 28.6602 88.5037 28.4036 88.23 28.0359C87.9649 27.6681 87.8323 27.2576 87.8323 26.8043C87.8323 26.1885 88.0247 25.6454 88.4096 25.175C88.803 24.6961 89.329 24.3283 89.9876 24.0717C90.6461 23.8151 91.3688 23.6868 92.1556 23.6868C93.2162 23.6868 94.0116 23.9178 94.5418 24.3796C95.0721 24.8329 95.3372 25.423 95.3372 26.15C95.3372 26.6546 95.2431 27.0651 95.055 27.3816C94.8754 27.6895 94.6145 27.8434 94.2724 27.8434C94.0329 27.8434 93.8448 27.7921 93.7079 27.6895C93.5711 27.5783 93.5027 27.4158 93.5027 27.202C93.5027 27.0566 93.5241 26.8984 93.5668 26.7273C93.6096 26.4451 93.631 26.2526 93.631 26.15C93.631 25.8421 93.5155 25.5941 93.2846 25.4059C93.0537 25.2092 92.6688 25.1109 92.13 25.1109C91.403 25.1109 90.8214 25.2648 90.3853 25.5727C89.9491 25.8806 89.731 26.2954 89.731 26.8171C89.731 27.2191 89.8935 27.5526 90.2185 27.8178C90.552 28.0743 91.0908 28.2155 91.8349 28.2411C92.0231 28.2497 92.1556 28.2924 92.2326 28.3694C92.3096 28.4464 92.3481 28.5747 92.3481 28.7543C92.3481 29.3188 92.0915 29.6053 91.5783 29.6138C90.8685 29.6309 90.2783 29.7293 89.8079 29.9089C89.3461 30.0885 89.0083 30.3194 88.7945 30.6017C88.5892 30.8753 88.4866 31.1704 88.4866 31.4868C88.4866 32.0171 88.7346 32.4191 89.2306 32.6928C89.7267 32.9579 90.5135 33.0905 91.5912 33.0905C92.301 33.0905 93.0494 33.0092 93.8362 32.8467C94.6316 32.6757 95.3116 32.4704 95.876 32.2309ZM107.699 31.7049C107.81 31.7049 107.895 31.7563 107.955 31.8589C108.024 31.9615 108.058 32.1026 108.058 32.2822C108.058 32.6158 107.976 32.8809 107.814 33.0776C107.403 33.5737 106.989 33.9586 106.57 34.2322C106.15 34.4974 105.654 34.6299 105.081 34.6299C104.525 34.6299 104.051 34.4803 103.657 34.1809C103.273 33.8816 102.905 33.3684 102.554 32.6415C102.272 32.0599 102.05 31.6322 101.887 31.3586C101.725 31.0763 101.562 30.8753 101.4 30.7556C101.246 30.6359 101.053 30.5632 100.822 30.5375C100.788 30.7171 100.69 31.2816 100.527 32.2309C100.459 32.6586 100.416 32.9194 100.399 33.0135C100.313 33.5352 100.142 33.9372 99.8857 34.2194C99.6291 34.4931 99.24 34.6299 98.7183 34.6299C98.1452 34.6299 97.6363 34.4632 97.1916 34.1296C96.7554 33.7875 96.4176 33.3171 96.1781 32.7184C95.9387 32.1112 95.8189 31.4227 95.8189 30.653C95.8189 29.2161 96.0669 27.976 96.563 26.9326C97.0676 25.8892 97.7689 25.0938 98.6669 24.5464C99.5735 23.9905 100.617 23.7125 101.797 23.7125C102.618 23.7125 103.307 23.8365 103.863 24.0845C104.419 24.3326 104.829 24.6747 105.094 25.1109C105.368 25.547 105.505 26.0388 105.505 26.5862C105.505 27.0651 105.389 27.5355 105.158 27.9974C104.936 28.4507 104.598 28.8526 104.145 29.2033C103.692 29.554 103.14 29.8148 102.49 29.9859C102.9 30.097 103.217 30.2767 103.439 30.5247C103.662 30.7727 103.884 31.1362 104.106 31.6151C104.346 32.1283 104.581 32.5046 104.812 32.7441C105.051 32.9836 105.325 33.1033 105.633 33.1033C105.907 33.1033 106.168 33.0135 106.416 32.8339C106.664 32.6457 106.976 32.3293 107.352 31.8845C107.455 31.7648 107.57 31.7049 107.699 31.7049ZM99.0518 30.5247C98.761 30.5247 98.56 30.4563 98.4488 30.3194C98.3462 30.1826 98.2949 30.0286 98.2949 29.8576C98.2949 29.6523 98.359 29.4898 98.4873 29.3701C98.6242 29.2503 98.7781 29.1905 98.9492 29.1905H99.2699C99.4067 28.3523 99.535 27.6296 99.6548 27.0224C99.766 26.4665 100.125 26.1885 100.732 26.1885C101.22 26.1885 101.464 26.4066 101.464 26.8428C101.464 26.9368 101.459 27.0095 101.451 27.0609L101.066 29.1905C101.528 29.1648 101.947 29.0536 102.323 28.8569C102.708 28.6602 103.012 28.3865 103.234 28.0359C103.465 27.6852 103.58 27.2875 103.58 26.8428C103.58 26.304 103.397 25.8806 103.029 25.5727C102.661 25.2648 102.122 25.1109 101.412 25.1109C100.574 25.1109 99.8387 25.3204 99.2058 25.7395C98.5814 26.15 98.0939 26.7658 97.7433 27.5868C97.3926 28.3993 97.2173 29.3915 97.2173 30.5632C97.2173 31.1105 97.2729 31.5809 97.384 31.9743C97.4952 32.3678 97.6321 32.6628 97.7946 32.8595C97.9571 33.0563 98.111 33.1546 98.2564 33.1546C98.3676 33.1546 98.4574 33.099 98.5258 32.9878C98.6028 32.8767 98.6627 32.697 98.7054 32.449L99.0518 30.5247Z" fill="white"/>
</svg>
