<svg width="32" height="32" viewBox="0 0 32 32" fill="none" xmlns="http://www.w3.org/2000/svg">
    <path d="M21.8133 18.6666C21.92 17.7866 22 16.9066 22 16C22 15.0933 21.92 14.2133 21.8133 13.3333H26.32C26.5333 14.1866 26.6666 15.08 26.6666 16C26.6666 16.92 26.5333 17.8133 26.32 18.6666M19.4533 26.08C20.2533 24.6 20.8666 23 21.2933 21.3333H25.2266C23.9349 23.5577 21.8854 25.2426 19.4533 26.08ZM19.12 18.6666H12.88C12.7466 17.7866 12.6666 16.9066 12.6666 16C12.6666 15.0933 12.7466 14.2 12.88 13.3333H19.12C19.24 14.2 19.3333 15.0933 19.3333 16C19.3333 16.9066 19.24 17.7866 19.12 18.6666ZM16 26.6133C14.8933 25.0133 14 23.24 13.4533 21.3333H18.5466C18 23.24 17.1066 25.0133 16 26.6133ZM10.6666 10.6666H6.77329C8.05148 8.436 10.0995 6.74828 12.5333 5.91996C11.7333 7.39996 11.1333 8.99996 10.6666 10.6666ZM6.77329 21.3333H10.6666C11.1333 23 11.7333 24.6 12.5333 26.08C10.1043 25.243 8.05901 23.5575 6.77329 21.3333ZM5.67996 18.6666C5.46663 17.8133 5.33329 16.92 5.33329 16C5.33329 15.08 5.46663 14.1866 5.67996 13.3333H10.1866C10.08 14.2133 9.99996 15.0933 9.99996 16C9.99996 16.9066 10.08 17.7866 10.1866 18.6666M16 5.37329C17.1066 6.97329 18 8.75996 18.5466 10.6666H13.4533C14 8.75996 14.8933 6.97329 16 5.37329ZM25.2266 10.6666H21.2933C20.8754 9.01544 20.2575 7.42143 19.4533 5.91996C21.9066 6.75996 23.9466 8.45329 25.2266 10.6666ZM16 2.66663C8.62663 2.66663 2.66663 8.66663 2.66663 16C2.66663 19.5362 4.07138 22.9276 6.57187 25.428C7.80998 26.6662 9.27984 27.6483 10.8975 28.3184C12.5152 28.9884 14.249 29.3333 16 29.3333C19.5362 29.3333 22.9276 27.9285 25.428 25.428C27.9285 22.9276 29.3333 19.5362 29.3333 16C29.3333 14.249 28.9884 12.5152 28.3184 10.8975C27.6483 9.27984 26.6662 7.80998 25.428 6.57187C24.1899 5.33375 22.7201 4.35163 21.1024 3.68157C19.4847 3.0115 17.7509 2.66663 16 2.66663Z" fill="#747C8E"/>
</svg>
