<svg width="32" height="32" viewBox="0 0 32 32" fill="none" xmlns="http://www.w3.org/2000/svg">
    <path d="M25.3333 4H6.66663C5.60576 4 4.58834 4.42143 3.8382 5.17157C3.08805 5.92172 2.66663 6.93913 2.66663 8V18.6667C2.66663 19.7275 3.08805 20.7449 3.8382 21.4951C4.58834 22.2452 5.60576 22.6667 6.66663 22.6667H14.6666V25.3333H9.33329C8.97967 25.3333 8.64053 25.4738 8.39048 25.7239C8.14044 25.9739 7.99996 26.313 7.99996 26.6667C7.99996 27.0203 8.14044 27.3594 8.39048 27.6095C8.64053 27.8595 8.97967 28 9.33329 28H22.6666C23.0202 28 23.3594 27.8595 23.6094 27.6095C23.8595 27.3594 24 27.0203 24 26.6667C24 26.313 23.8595 25.9739 23.6094 25.7239C23.3594 25.4738 23.0202 25.3333 22.6666 25.3333H17.3333V22.6667H25.3333C26.3942 22.6667 27.4116 22.2452 28.1617 21.4951C28.9119 20.7449 29.3333 19.7275 29.3333 18.6667V8C29.3333 6.93913 28.9119 5.92172 28.1617 5.17157C27.4116 4.42143 26.3942 4 25.3333 4ZM26.6666 18.6667C26.6666 19.0203 26.5261 19.3594 26.2761 19.6095C26.0261 19.8595 25.6869 20 25.3333 20H6.66663C6.313 20 5.97387 19.8595 5.72382 19.6095C5.47377 19.3594 5.33329 19.0203 5.33329 18.6667V8C5.33329 7.64638 5.47377 7.30724 5.72382 7.05719C5.97387 6.80714 6.313 6.66667 6.66663 6.66667H25.3333C25.6869 6.66667 26.0261 6.80714 26.2761 7.05719C26.5261 7.30724 26.6666 7.64638 26.6666 8V18.6667Z" fill="#0B96DB"/>
</svg>
